<?xml version="1.0" standalone="no"?>
<!DOCTYPE svg PUBLIC "-//W3C//DTD SVG 20010904//EN"
 "http://www.w3.org/TR/2001/REC-SVG-20010904/DTD/svg10.dtd">
<svg version="1.0" xmlns="http://www.w3.org/2000/svg"
 width="162.000000pt" height="162.000000pt" viewBox="0 0 162.000000 162.000000"
 preserveAspectRatio="xMidYMid meet">
<metadata>
Created by potrace 1.11, written by Peter Selinger 2001-2013
</metadata>
<g transform="translate(0.000000,162.000000) scale(0.100000,-0.100000)"
fill="#000000" stroke="none">
<path d="M480 1481 c-89 -29 -137 -58 -203 -124 -161 -160 -183 -396 -55 -587
84 -126 215 -199 374 -208 103 -5 172 10 267 61 l58 30 44 -43 c40 -39 44 -47
40 -84 l-4 -40 187 -183 c165 -161 191 -183 220 -183 62 0 130 63 139 129 6
42 23 21 -253 293 -107 105 -143 127 -175 107 -10 -6 -28 5 -61 38 -27 26 -48
51 -48 55 0 5 11 25 24 46 66 100 85 258 48 378 -48 153 -180 278 -337 319
-78 20 -196 18 -265 -4z m254 -152 c72 -27 146 -94 182 -166 24 -49 29 -70 29
-133 0 -41 -7 -91 -15 -110 -19 -49 -60 -108 -60 -89 0 22 -26 44 -35 29 -3
-5 1 -10 9 -10 19 0 21 -16 4 -26 -7 -5 -8 -3 -3 6 6 10 4 12 -8 7 -9 -3 -16
-3 -16 1 3 19 -2 32 -12 32 -8 0 -7 -6 2 -17 8 -9 13 -18 12 -20 -7 -8 -2 -24
5 -19 4 2 14 1 21 -3 17 -11 -82 -77 -139 -92 -107 -28 -214 -5 -297 64 -57
47 -85 87 -107 150 -24 73 -23 76 33 72 93 -6 117 -15 113 -47 -1 -3 5 -9 14
-12 8 -3 13 -2 10 3 -3 5 1 11 9 14 10 4 12 1 8 -11 -6 -15 -5 -15 11 -2 16
12 19 12 28 -3 10 -18 28 -14 28 5 0 6 -3 9 -6 6 -3 -4 -17 0 -31 7 -14 7 -34
12 -43 10 -15 -3 -17 2 -14 23 4 22 3 25 -7 15 -16 -16 -29 -17 -29 -2 0 5 4
8 9 5 5 -3 14 1 21 9 10 12 10 15 -1 16 -12 0 -12 1 0 6 11 5 11 7 0 15 -10 6
-6 7 11 2 22 -6 23 -5 11 9 -7 9 -18 14 -24 10 -6 -4 -7 -1 -3 6 6 9 13 8 27
-5 10 -9 19 -12 19 -6 0 6 -5 14 -10 17 -6 4 -8 10 -5 15 3 5 0 12 -6 16 -8 5
-9 3 -4 -5 10 -17 -53 -7 -69 10 -8 9 -8 10 2 5 6 -4 12 -2 12 3 0 19 -17 12
-33 -13 -17 -25 -12 -41 7 -29 6 4 20 8 32 9 18 1 21 -5 20 -38 -1 -23 -6 -38
-13 -38 -7 0 -13 -3 -13 -8 0 -4 -16 -7 -35 -8 -19 0 -35 3 -35 7 0 14 -33 19
-48 7 -14 -12 -15 -7 -9 35 29 209 246 340 441 266z"/>
<path d="M613 1317 c-12 -20 -12 -38 1 -43 14 -5 9 -74 -5 -74 -5 0 -9 -5 -9
-10 0 -7 6 -7 19 0 20 10 41 -4 27 -17 -3 -3 -1 -12 5 -20 9 -10 8 -17 -1 -28
-11 -13 -9 -15 8 -12 23 3 42 17 25 17 -6 0 -13 8 -15 18 -3 11 0 19 8 19 13
0 18 -11 15 -30 -1 -4 11 -5 25 -3 25 5 25 4 10 -13 -9 -10 -13 -21 -9 -26 5
-4 2 -5 -5 -1 -7 4 -9 12 -6 18 4 6 1 9 -6 6 -25 -8 -20 -23 13 -38 19 -9 31
-21 28 -30 -2 -8 -4 -21 -4 -27 0 -7 -6 -13 -13 -13 -6 0 -15 -7 -18 -16 -3
-8 -2 -12 4 -9 11 7 29 -26 23 -43 -4 -11 -1 -11 18 0 12 7 31 21 42 31 18 18
19 18 33 -2 16 -22 41 -30 28 -9 -5 8 -2 9 9 5 18 -7 21 1 11 27 -3 9 -9 14
-13 11 -4 -2 -21 -6 -37 -9 -27 -5 -30 -3 -32 22 -1 15 -4 37 -7 50 -2 13 0
20 6 17 5 -4 7 -11 4 -16 -4 -5 -1 -9 4 -9 6 0 11 5 11 11 0 5 4 7 10 4 5 -3
21 6 35 21 14 16 23 20 19 11 -3 -9 -1 -18 5 -18 27 -4 31 -3 30 5 0 5 5 12
11 16 9 6 6 12 -11 20 -20 11 -25 10 -44 -12 -29 -34 -83 -33 -107 2 -25 35
-22 50 12 61 31 11 35 17 22 34 -10 14 -47 13 -47 -2 0 -6 -3 -15 -7 -19 -5
-4 -8 -16 -8 -26 0 -10 -5 -18 -11 -18 -5 0 -7 5 -3 12 4 6 3 8 -4 4 -6 -3
-13 -2 -17 4 -4 6 -10 8 -14 6 -4 -3 -18 6 -29 19 -25 28 -28 40 -9 29 9 -6 9
-4 1 7 -14 18 -14 49 1 49 6 0 11 9 11 19 0 22 -32 35 -43 18z m19 -22 c0 -5
-5 -10 -11 -11 -8 -2 -7 -1 0 3 8 4 7 8 -2 15 -11 8 -11 9 -1 6 8 -2 14 -8 14
-13z m153 -95 c-3 -4 -15 -10 -27 -13 -21 -5 -21 -5 -6 7 10 7 15 16 11 20 -4
4 0 4 10 0 9 -3 15 -10 12 -14z m114 -91 c-12 -7 -12 -9 0 -9 8 0 12 -3 8 -6
-10 -10 -26 6 -21 21 4 8 11 12 16 9 6 -4 5 -10 -3 -15z m-133 -31 c1 -13 3
-24 3 -25 1 -2 1 -6 2 -10 1 -5 5 -16 11 -27 5 -10 6 -16 1 -13 -5 3 -14 -3
-21 -14 -13 -20 -4 -26 16 -9 7 5 6 3 -2 -6 -14 -17 -41 -10 -31 7 4 5 1 9 -6
9 -8 0 -9 3 0 13 6 8 8 17 4 20 -3 4 1 9 10 13 14 5 14 9 -5 34 -11 15 -17 33
-13 40 10 16 28 -2 31 -32z m104 -93 c0 -7 -30 -13 -34 -7 -3 4 4 9 15 9 10 1
19 0 19 -2z"/>
<path d="M740 1105 c0 -5 5 -17 10 -25 5 -8 10 -10 10 -5 0 6 -5 17 -10 25 -5
8 -10 11 -10 5z"/>
<path d="M753 1008 c-2 -18 0 -20 7 -8 12 18 13 30 2 30 -4 0 -9 -10 -9 -22z"/>
<path d="M425 1253 c-3 -8 1 -21 9 -29 21 -20 28 -17 21 9 -5 20 -5 20 9 -3
l14 -25 -1 27 c-1 14 -5 24 -9 21 -5 -2 -8 0 -8 5 0 14 -29 10 -35 -5z"/>
<path d="M486 1201 c-3 -4 3 -19 14 -31 11 -12 17 -27 14 -31 -3 -5 -1 -9 5
-9 5 0 13 9 16 21 4 11 9 18 12 16 2 -3 -3 -19 -11 -36 -10 -19 -12 -32 -6
-36 16 -10 29 4 25 28 -4 20 0 22 35 22 29 1 40 -3 40 -14 0 -12 3 -12 12 -3
10 10 10 14 0 21 -7 4 -10 16 -6 27 3 11 2 15 -3 9 -11 -13 -43 -18 -43 -7 0
5 -7 9 -16 9 -13 0 -11 -4 5 -17 21 -15 21 -16 2 -16 -11 0 -17 4 -15 8 3 4 0
9 -5 9 -6 1 -15 3 -21 4 -5 1 -17 3 -26 4 -8 0 -13 5 -9 10 3 5 1 12 -4 15 -5
4 -12 2 -15 -3z"/>
<path d="M370 1140 c-6 -11 -8 -20 -6 -20 3 0 10 9 16 20 6 11 8 20 6 20 -3 0
-10 -9 -16 -20z"/>
<path d="M492 1128 c2 -13 7 -28 11 -35 10 -17 -3 -43 -22 -43 -13 0 -13 -2
-2 -9 11 -7 11 -9 0 -14 -10 -4 -9 -6 3 -6 9 -1 19 3 22 8 8 13 46 1 46 -14 0
-7 7 -15 15 -19 19 -7 19 8 0 24 -8 7 -12 16 -9 21 3 5 -9 7 -25 5 -27 -3 -29
-1 -20 15 10 19 20 25 18 12 -4 -22 3 -25 17 -7 8 10 12 12 8 4 -6 -12 -5 -13
7 -4 8 5 24 9 37 8 12 0 22 3 22 7 0 5 8 9 17 9 14 0 14 3 5 12 -10 10 -14 10
-21 0 -9 -15 -83 -23 -102 -12 -6 4 -9 12 -5 18 3 6 2 13 -4 17 -6 4 -8 11 -5
16 4 5 1 9 -5 9 -6 0 -9 -10 -8 -22z"/>
<path d="M645 1085 c-21 -22 -30 -75 -11 -71 6 2 8 1 3 -1 -4 -3 -5 -9 -1 -14
6 -10 -3 -11 -53 -11 -35 0 -40 -7 -21 -26 9 -9 8 -16 -5 -30 -17 -16 -19 -16
-28 1 -8 14 -14 16 -25 6 -8 -6 -14 -8 -14 -5 0 4 -9 2 -20 -4 -11 -6 -18 -15
-15 -21 4 -5 1 -9 -6 -9 -7 0 -10 -3 -7 -6 9 -8 50 15 44 25 -8 12 31 6 48 -8
18 -15 21 -31 6 -31 -5 0 -9 5 -7 11 1 6 -9 13 -23 15 l-25 4 25 -20 c14 -11
28 -20 32 -20 10 0 6 -60 -4 -60 -4 0 -7 -3 -7 -7 3 -21 -2 -33 -16 -33 -8 0
-15 -3 -15 -7 1 -30 51 -39 56 -11 1 10 -2 20 -7 24 -5 3 -3 15 6 27 8 12 15
29 15 38 0 8 6 16 13 17 86 9 85 9 95 -13 7 -16 7 -26 -1 -35 -9 -10 -9 -11 1
-6 6 4 12 2 12 -3 0 -6 -7 -11 -16 -11 -13 0 -14 -3 -5 -14 14 -16 36 -15 53
2 9 9 9 12 0 12 -7 0 -12 -5 -12 -12 0 -6 -3 -8 -6 -5 -4 4 -2 13 5 20 9 11 8
17 -3 26 -17 15 -9 51 16 69 14 10 16 17 8 33 -11 19 -30 18 -30 -2 0 -6 4 -8
9 -4 5 3 13 0 17 -6 5 -8 3 -9 -6 -4 -8 5 -11 4 -7 -3 5 -6 -2 -6 -18 1 -13 7
-20 14 -14 15 6 3 6 9 -2 18 -9 11 -9 14 0 14 7 0 9 5 6 10 -4 6 -11 8 -16 5
-5 -3 -6 2 -3 12 4 14 3 15 -4 4 -6 -8 -12 -9 -16 -3 -13 22 21 18 41 -4 12
-13 17 -24 12 -24 -5 0 -9 -5 -9 -10 0 -6 8 -5 20 2 11 7 16 14 10 16 -6 2 -7
9 -4 14 5 7 2 8 -5 4 -8 -5 -14 0 -18 13 -3 12 -11 21 -19 21 -28 0 -37 55
-11 71 5 4 8 11 6 16 -2 5 -13 0 -24 -12z m11 -138 c12 -21 11 -26 -2 -31 -8
-3 -12 -10 -9 -16 3 -5 1 -10 -5 -10 -6 0 -8 -4 -5 -10 3 -5 2 -10 -3 -10 -6
0 -13 7 -16 16 -4 10 -2 13 7 9 6 -4 3 1 -8 10 -11 9 -18 23 -17 33 3 13 1 14
-12 3 -15 -13 -15 -15 0 -26 10 -6 14 -17 10 -23 -3 -5 -1 -12 6 -14 7 -3 5
-7 -6 -11 -11 -4 -15 -3 -10 4 4 7 -1 9 -17 5 -13 -3 -18 -3 -12 0 9 4 10 11
3 24 -8 15 -4 23 20 43 19 16 25 27 17 30 -6 3 1 4 17 2 19 -1 33 -10 42 -28z
m14 -44 c0 -5 -5 -15 -10 -23 -7 -12 -9 -10 -7 8 1 19 17 33 17 15z m23 -34
c-4 -16 -8 -17 -14 -7 -5 7 -4 14 1 16 6 2 7 9 4 14 -4 6 -2 8 4 5 5 -4 8 -16
5 -28z m-153 -119 c8 -5 11 -10 5 -10 -5 0 -17 5 -25 10 -8 5 -10 10 -5 10 6
0 17 -5 25 -10z"/>
<path d="M567 904 c6 -15 23 -19 23 -5 0 5 -7 11 -14 14 -10 4 -13 1 -9 -9z"/>
<path d="M569 1063 c-10 -23 3 -48 31 -63 15 -8 17 -5 15 23 -2 18 -3 34 -4
37 -1 6 -40 8 -42 3z m37 -29 c-3 -9 -6 -18 -6 -20 0 -3 -6 1 -14 8 -10 9 -11
15 -2 20 19 13 28 9 22 -8z"/>
<path d="M475 1000 c-3 -5 -1 -10 4 -10 6 0 11 5 11 10 0 6 -2 10 -4 10 -3 0
-8 -4 -11 -10z"/>
<path d="M310 986 c7 -7 13 -7 20 0 6 6 3 10 -10 10 -13 0 -16 -4 -10 -10z"/>
<path d="M746 931 c-9 -14 2 -35 24 -49 27 -16 36 3 11 25 -11 9 -18 20 -15
25 3 4 1 8 -5 8 -5 0 -12 -4 -15 -9z m29 -31 c10 -11 16 -20 13 -20 -3 0 -13
9 -23 20 -10 11 -16 20 -13 20 3 0 13 -9 23 -20z"/>
<path d="M401 886 c-17 -21 -7 -45 18 -43 11 1 18 3 16 6 -3 2 1 11 7 20 7 9
8 13 4 9 -5 -4 -14 -1 -21 8 -10 14 -12 14 -24 0z m16 -18 c2 -17 0 -19 -7 -8
-5 8 -6 18 -4 22 8 12 10 10 11 -14z"/>
</g>
</svg>
