<svg xmlns="http://www.w3.org/2000/svg" width="382.162" height="42.977" viewBox="0 0 382.162 42.977"><defs><style>.a,.b,.c{fill:#28536b;}.b{fill-rule:evenodd;}.c{opacity:0.52;}</style></defs><g transform="translate(-278 -200.481)"><g transform="translate(278 205.504)"><path class="a" d="M88.2,151.595a3.26,3.26,0,1,0-6.519,0v10.548h-6.87V151.595a3.259,3.259,0,1,0-6.516,0v10.548h-6.87V142.481h6.87v2.595A6.771,6.771,0,0,1,74,142.309a7.2,7.2,0,0,1,6.554,3.609,7.883,7.883,0,0,1,6.551-3.609c4.976,0,7.956,3.223,7.956,8.374v11.46H88.2Z" transform="translate(-61.423 -133.581)"/><path class="a" d="M74.035,142.9c0-2,1.578-3.574,4.029-3.574,2.419,0,3.994,1.578,3.994,3.574,0,1.964-1.575,3.506-3.994,3.506C75.613,146.4,74.035,144.859,74.035,142.9Zm.561,5.327h6.87v19.662H74.6Z" transform="translate(-37.183 -139.322)"/><path class="a" d="M91.309,151.595c0-2.279-1.262-3.612-3.223-3.612-2.034,0-3.3,1.332-3.3,3.612v10.548H77.923V142.481H84.79v2.805a7.094,7.094,0,0,1,5.993-2.977c4.555,0,7.4,3.223,7.4,8.374v11.46h-6.87Z" transform="translate(-29.711 -133.581)"/><path class="a" d="M94.145,142.284a6.337,6.337,0,0,1,5.783,2.98v-2.735h6.87v19.662h-6.87v-2.735a6.381,6.381,0,0,1-5.783,2.98c-4.661,0-8.374-3.819-8.374-10.092S89.485,142.284,94.145,142.284Zm2.209,5.993c-1.964,0-3.576,1.4-3.576,4.067,0,2.627,1.613,4.1,3.576,4.1,1.926,0,3.574-1.438,3.574-4.1C99.928,149.715,98.28,148.277,96.354,148.277Z" transform="translate(-14.627 -133.629)"/><path class="a" d="M103.36,162.437c-5.467,0-9.111-2.945-9.394-6.87h6.659a2.43,2.43,0,0,0,2.7,2c1.157,0,1.823-.561,1.823-1.262,0-2.875-10.443-.526-10.443-7.746,0-3.433,2.84-6.273,8.167-6.273,5.362,0,8.164,2.98,8.62,6.87h-6.2a2.31,2.31,0,0,0-2.557-1.964c-1.122,0-1.718.459-1.718,1.192,0,2.805,10.478.561,10.513,8.027C111.524,159.842,108.441,162.437,103.36,162.437Z" transform="translate(1.123 -133.629)"/><path class="a" d="M116.168,142.368H123.7l-12.477,29.018h-7.463l4.7-10.2-8.062-18.82h7.641l4.135,11.144Z" transform="translate(13.486 -133.468)"/><path class="a" d="M135.764,151.595a3.26,3.26,0,1,0-6.519,0v10.548h-6.87V151.595a3.259,3.259,0,1,0-6.516,0v10.548h-6.87V142.481h6.87v2.595a6.769,6.769,0,0,1,5.709-2.767,7.206,7.206,0,0,1,6.557,3.609,7.883,7.883,0,0,1,6.551-3.609c4.976,0,7.956,3.223,7.956,8.374v11.46h-6.87Z" transform="translate(29.999 -133.581)"/><path class="a" d="M134.408,142.284c4.7,0,8.377,3.787,8.377,10.06s-3.682,10.092-8.377,10.092a6.424,6.424,0,0,1-5.745-2.98v12.126h-6.87V142.529h6.87v2.735A6.352,6.352,0,0,1,134.408,142.284Zm-2.171,5.993c-1.928,0-3.574,1.438-3.574,4.067,0,2.662,1.645,4.1,3.574,4.1s3.574-1.473,3.574-4.1C135.811,149.68,134.163,148.277,132.237,148.277Z" transform="translate(54.608 -133.629)"/><path class="a" d="M131.917,151.215H129.5V145.5h2.419v-4.766h6.9V145.5H142.4v5.712h-3.576V157.8c0,1.052.456,1.508,1.613,1.508h2v5.853h-2.98c-4.345,0-7.533-1.823-7.533-7.466Z" transform="translate(69.415 -136.602)"/><path class="a" d="M144.89,162.437c-5.853,0-10.268-3.819-10.268-10.092,0-6.238,4.45-10.06,10.3-10.06s10.3,3.822,10.3,10.06C155.228,158.618,150.743,162.437,144.89,162.437Zm0-5.958c1.75,0,3.363-1.3,3.363-4.135,0-2.805-1.575-4.1-3.328-4.1s-3.293,1.3-3.293,4.1C141.632,155.182,143.1,156.479,144.89,156.479Z" transform="translate(79.263 -133.629)"/><path class="a" d="M169.409,151.595a3.259,3.259,0,1,0-6.516,0v10.548h-6.87V151.595a3.26,3.26,0,1,0-6.519,0v10.548h-6.867V142.481H149.5v2.595a6.775,6.775,0,0,1,5.712-2.767,7.2,7.2,0,0,1,6.554,3.609,7.888,7.888,0,0,1,6.554-3.609c4.976,0,7.954,3.223,7.954,8.374v11.46h-6.87Z" transform="translate(94.669 -133.581)"/><path class="a" d="M159.233,153.87c-2.454,0-4.032-1.54-4.032-3.539s1.578-3.574,4.032-3.574c2.417,0,3.994,1.578,3.994,3.574S161.65,153.87,159.233,153.87Z" transform="translate(118.815 -125.03)"/><path class="a" d="M168.1,162.437c-5.467,0-9.111-2.945-9.391-6.87h6.659a2.43,2.43,0,0,0,2.7,2c1.157,0,1.823-.561,1.823-1.262,0-2.875-10.443-.526-10.443-7.746,0-3.433,2.84-6.273,8.164-6.273,5.362,0,8.167,2.98,8.623,6.87h-6.2a2.312,2.312,0,0,0-2.557-1.964c-1.122,0-1.718.459-1.718,1.192,0,2.805,10.478.561,10.513,8.027C176.263,159.842,173.177,162.437,168.1,162.437Z" transform="translate(125.549 -133.629)"/><path class="a" d="M175.472,162.437c-5.818,0-9.987-3.819-9.987-10.092,0-6.238,4.1-10.06,9.987-10.06,5.818,0,9.917,3.752,9.917,9.85a12.449,12.449,0,0,1-.105,1.61h-13c.14,2.279,1.367,3.191,2.907,3.191a2.565,2.565,0,0,0,2.454-1.543h7.322C184.06,159.421,180.381,162.437,175.472,162.437Zm-3.153-12.021h6.06a2.694,2.694,0,0,0-2.942-2.7A2.964,2.964,0,0,0,172.319,150.416Z" transform="translate(138.58 -133.629)"/></g><g transform="translate(616.345 200.481)"><path class="b" d="M177.657,118.235a15.1,15.1,0,0,1,21.061.009,14.409,14.409,0,0,1,1.248,19.414l3.3,3.083a2.226,2.226,0,0,1,2.984.311l10.212,10.021c2.513,2.31-2.987,7.7-5.346,5.236L200.9,146.289a2.129,2.129,0,0,1-.314-2.929l-3.141-3.237a15.132,15.132,0,0,1-19.8-1.241,14.4,14.4,0,0,1,.006-20.646Zm3.3,3.333a10.2,10.2,0,0,1,14.524.006,9.952,9.952,0,0,1-.006,14.239,10.437,10.437,0,0,1-14.524-.006A9.732,9.732,0,0,1,180.955,121.567Z" transform="translate(-173.289 -113.963)"/><path class="c" d="M188.549,132.2a.919.919,0,0,0-.445-.392.664.664,0,0,1-.38-.6l.012-.872a.665.665,0,0,1,.349-.569,2.54,2.54,0,0,0,.541-.354.712.712,0,0,1,.806-.055l1.554.86a.648.648,0,0,1,.312.741.811.811,0,0,0-.025.273.925.925,0,0,0,.4.671.994.994,0,0,0,1.325-.244.952.952,0,0,0,.136-.293.864.864,0,0,0-.365-.921.939.939,0,0,0-.714-.157.7.7,0,0,1-.683-.238l-1.27-1.488a.65.65,0,0,1-.062-.758c.117-.221.232-.445.343-.689a.706.706,0,0,1,.7-.442l.516.017c.006.02-.006.073,0,.1a.931.931,0,0,0,1.026.808.9.9,0,0,0,.859-.962.93.93,0,0,0-1.023-.811h-.006a.86.86,0,0,0-.55.235.76.76,0,0,1-.735.113.663.663,0,0,1-.442-.636,6.384,6.384,0,0,0-.019-.692.677.677,0,0,1,.327-.648l2.02-1.185c.009.023.046.061.052.084a.991.991,0,0,0,1.335.151.859.859,0,0,0,.263-1.107.982.982,0,0,0-1.446-.311,1.008,1.008,0,0,0-.324.491.644.644,0,0,1-.553.477l-1.613.285a.732.732,0,0,1-.757-.317,5.686,5.686,0,0,0-.84-1.063.64.64,0,0,1-.08-.825l.327-.468.09.049a.979.979,0,0,0,1.273-.415.871.871,0,0,0-.439-1.2.983.983,0,0,0-1.273.415l0,.006a.786.786,0,0,0-.068.572.607.607,0,0,1-.275.648l-.216.151a.732.732,0,0,1-.757.044,5.378,5.378,0,0,0-1-.372.708.708,0,0,1-.516-.546l-.386-2.167.12-.029a.872.872,0,0,0,.562-1.275.989.989,0,0,0-1.291-.372.879.879,0,0,0-.463,1.06.739.739,0,0,0,.361.462.665.665,0,0,1,.263.657l-.318,1.485a.7.7,0,0,1-.59.537,6.384,6.384,0,0,0-.7.128c-.232.064-.457.137-.68.221a.782.782,0,0,1-.748-.1l-1.554-1.223c.019-.029.059-.064.077-.093a.866.866,0,0,0-.29-1.238.991.991,0,0,0-1.319.273.863.863,0,0,0,.275,1.229.88.88,0,0,0,.6.137.742.742,0,0,1,.661.34l.59.985a.647.647,0,0,1-.108.8,5.184,5.184,0,0,0-.6.683.734.734,0,0,1-.775.244l-.664-.171a.17.17,0,0,0,.022-.1.91.91,0,0,0-.816-1.017.874.874,0,0,0-.195-.006.905.905,0,0,0-.812.569.883.883,0,0,0,.55,1.159,1.021,1.021,0,0,0,.207.049,1.134,1.134,0,0,0,.612-.1.745.745,0,0,1,.757.052l.09.049a.641.641,0,0,1,.266.752,5.3,5.3,0,0,0-.207.895.708.708,0,0,1-.6.587l-2.076.279-.031-.113a.96.96,0,0,0-1.158-.648.89.89,0,0,0-.686,1.09.959.959,0,0,0,1.155.648.9.9,0,0,0,.5-.32.71.71,0,0,1,.7-.227l2.268.491.052.18a4.442,4.442,0,0,0,.519,1.194.686.686,0,0,1-.043.758l-.741.909a.329.329,0,0,1-.1-.073,1,1,0,0,0-1.319.334.855.855,0,0,0,.547,1.281.974.974,0,0,0,1.094-.4.835.835,0,0,0,.121-.561.646.646,0,0,1,.33-.639l.463-.261a.742.742,0,0,1,.837.055,4.654,4.654,0,0,0,1,.639.7.7,0,0,1,.377.7l-.315,2.13c-.031-.017-.077-.006-.108-.02a.92.92,0,1,0,.745.366.668.668,0,0,1-.046-.712l.874-1.522a.737.737,0,0,1,.7-.343,5.744,5.744,0,0,0,1.823-.171l.145-.038.6,1.49a.2.2,0,0,0-.114.052.867.867,0,0,0-.4,1.206.83.83,0,0,0,.12.166,1.009,1.009,0,0,0,.976.285.826.826,0,0,0,.7-.953.8.8,0,0,0-.1-.261Zm-5.32-9.751c-.12-.427.491-.7,1.091-.854a1.043,1.043,0,0,1,1.3.517c.226.787-.414,1.069-1.01,1.22A1.343,1.343,0,0,1,183.23,122.451Zm-1.881,3.922a1.211,1.211,0,0,1,.652-1.49c.553-.139,1.013.491,1.18,1.078s.046,1.072-.525,1.217a1.111,1.111,0,0,1-1.307-.8Zm4.872-1.351a1.485,1.485,0,0,1,.952-1.781,1.63,1.63,0,0,1,1.776,1.092,1.027,1.027,0,0,1-.744,1.441c-.766.195-1.8-.1-1.983-.75Zm-1.557,3.167a1.215,1.215,0,0,1,.772-1.427c.479-.119.769.36.948.991a1.037,1.037,0,0,1-.534,1.366C185.373,129.241,184.842,128.819,184.663,128.189Z" transform="translate(-170.418 -110.445)"/></g></g></svg>